<svg data-v-423bf9ae="" xmlns="http://www.w3.org/2000/svg" viewBox="0 0 577 90" class="iconLeft"><!----><!----><!----><g data-v-423bf9ae="" id="2386030b-5804-4868-a6b8-03acf08fe054" fill="#000000" transform="matrix(4.344677937748613,0,0,4.344677937748613,105.61188292316902,1.9659671404284822)"><path d="M1.01 13.78L3.07 13.78L3.07 9.00C3.56 8.48 3.92 8.20 4.48 8.20C5.24 8.20 5.50 8.65 5.50 9.63L5.50 13.78L7.56 13.78L7.56 9.37C7.56 7.56 6.86 6.45 5.31 6.45C4.26 6.45 3.50 6.99 2.95 7.55L3.07 6.16L3.07 3.65L1.01 3.65ZM12.57 5.80C13.38 5.80 13.97 5.26 13.97 4.42C13.97 3.58 13.38 3.00 12.57 3.00C11.76 3.00 11.17 3.58 11.17 4.42C11.17 5.26 11.76 5.80 12.57 5.80ZM9.25 13.78L16.07 13.78L16.07 12.11L13.69 12.11L13.69 6.64L9.25 6.64L9.25 8.25L11.63 8.25L11.63 12.11L9.25 12.11ZM22.23 13.94C23.13 13.94 23.88 13.75 24.50 13.55L24.14 12.07C23.73 12.22 23.28 12.33 22.75 12.33C21.74 12.33 21.29 11.90 21.29 10.81L21.29 8.25L24.23 8.25L24.23 6.64L21.29 6.64L21.29 3.70L19.33 4.54L19.33 6.64L17.49 6.64L17.49 8.25L19.24 8.25L19.24 10.82C19.24 12.68 20.02 13.94 22.23 13.94ZM29.34 13.94C31.57 13.94 32.76 12.95 32.76 11.66C32.76 10.43 31.57 9.90 30.20 9.52C29.22 9.25 28.42 9.03 28.42 8.58C28.42 8.20 28.76 7.99 29.62 7.99C30.35 7.99 31.02 8.27 31.65 8.67L32.58 7.43C31.85 6.96 30.81 6.45 29.58 6.45C27.59 6.45 26.38 7.36 26.38 8.68C26.38 9.81 27.64 10.42 28.85 10.77C29.97 11.09 30.72 11.34 30.72 11.79C30.72 12.18 30.32 12.42 29.39 12.42C28.46 12.42 27.66 12.08 26.87 11.56L25.94 12.85C26.82 13.45 28.10 13.94 29.34 13.94ZM37.80 13.94C38.77 13.94 39.42 13.23 39.42 12.31C39.42 11.38 38.77 10.65 37.80 10.65C36.83 10.65 36.18 11.38 36.18 12.31C36.18 13.23 36.83 13.94 37.80 13.94ZM46.62 13.94C47.54 13.94 48.58 13.62 49.36 13.12L48.69 11.87C48.08 12.21 47.53 12.38 46.90 12.38C45.88 12.38 45.02 11.90 44.88 10.81L49.56 10.81C49.59 10.63 49.64 10.25 49.64 9.88C49.64 7.94 48.52 6.45 46.38 6.45C44.53 6.45 42.77 7.87 42.77 10.21C42.77 12.57 44.46 13.94 46.62 13.94ZM44.86 9.44C45.04 8.48 45.68 8.04 46.42 8.04C47.36 8.04 47.78 8.60 47.78 9.44ZM50.92 13.78L53.07 13.78L53.76 12.56C53.97 12.14 54.19 11.73 54.40 11.33L54.46 11.33C54.71 11.73 55.01 12.17 55.26 12.56L56.06 13.78L58.27 13.78L55.86 10.29L58.13 6.64L55.97 6.64L55.36 7.81L54.78 9.03L54.73 9.03C54.49 8.64 54.21 8.22 54.00 7.81L53.28 6.64L51.07 6.64L53.33 10.07ZM63.60 13.94C64.55 13.94 65.63 13.61 66.47 12.89L65.63 11.59C65.14 11.96 64.53 12.28 63.80 12.28C62.65 12.28 61.85 11.47 61.85 10.21C61.85 8.95 62.68 8.12 63.87 8.12C64.39 8.12 64.88 8.30 65.41 8.71L66.36 7.43C65.77 6.87 64.85 6.45 63.76 6.45C61.61 6.45 59.74 7.83 59.74 10.21C59.74 12.59 61.42 13.94 63.60 13.94ZM68.21 13.78L70.27 13.78L70.27 9.00C70.76 8.48 71.12 8.20 71.68 8.20C72.44 8.20 72.70 8.65 72.70 9.63L72.70 13.78L74.76 13.78L74.76 9.37C74.76 7.56 74.06 6.45 72.51 6.45C71.46 6.45 70.70 6.99 70.15 7.55L70.27 6.16L70.27 3.65L68.21 3.65ZM78.74 13.94C79.63 13.94 80.50 13.51 81.20 12.96L81.26 12.96L81.41 13.78L83.09 13.78L83.09 9.66C83.09 7.50 81.90 6.45 79.95 6.45C78.76 6.45 77.66 6.87 76.99 7.43L77.71 8.78C78.22 8.37 78.88 8.11 79.55 8.11C80.49 8.11 80.96 8.51 81.03 9.18C77.74 9.39 76.45 10.21 76.45 11.80C76.45 13.01 77.34 13.94 78.74 13.94ZM79.39 12.35C78.81 12.35 78.43 12.12 78.43 11.65C78.43 11.00 78.99 10.54 81.03 10.42L81.03 11.65C80.54 12.05 80.01 12.35 79.39 12.35ZM85.01 13.78L87.07 13.78L87.07 9.00C87.56 8.48 87.92 8.20 88.48 8.20C89.24 8.20 89.50 8.65 89.50 9.63L89.50 13.78L91.56 13.78L91.56 9.37C91.56 7.56 90.86 6.45 89.29 6.45C88.26 6.45 87.50 6.99 86.90 7.60L86.84 7.60L86.69 6.64L85.01 6.64ZM96.18 16.81C98.55 16.81 99.79 15.69 99.79 13.78L99.79 6.64L98.18 6.64L98.01 7.38L97.96 7.38C97.43 6.76 96.80 6.45 96.07 6.45C94.47 6.45 93.06 7.88 93.06 10.08C93.06 12.15 94.23 13.59 95.98 13.59C96.64 13.59 97.38 13.30 97.85 12.82L97.80 13.99C97.79 14.55 97.20 15.20 96.18 15.20C95.61 15.20 94.84 15.05 94.18 14.53L93.49 15.93C94.30 16.60 95.41 16.81 96.18 16.81ZM96.52 11.94C95.70 11.94 95.14 11.26 95.14 10.05C95.14 8.83 95.84 8.13 96.54 8.13C96.98 8.13 97.36 8.27 97.73 8.64L97.73 11.23C97.36 11.75 96.96 11.94 96.52 11.94ZM105.42 13.94C106.34 13.94 107.38 13.62 108.16 13.12L107.49 11.87C106.88 12.21 106.33 12.38 105.70 12.38C104.68 12.38 103.82 11.90 103.68 10.81L108.36 10.81C108.39 10.63 108.44 10.25 108.44 9.88C108.44 7.94 107.32 6.45 105.18 6.45C103.33 6.45 101.57 7.87 101.57 10.21C101.57 12.57 103.26 13.94 105.42 13.94ZM103.66 9.44C103.84 8.48 104.48 8.04 105.22 8.04C106.16 8.04 106.58 8.60 106.58 9.44Z"></path></g><defs data-v-423bf9ae=""><linearGradient data-v-423bf9ae="" gradientTransform="rotate(25)" id="f856a85e-a928-465e-8554-37c3c76c4a1a" x1="0%" y1="0%" x2="100%" y2="0%"><stop data-v-423bf9ae="" offset="0%" style="stop-color: rgb(233, 13, 202); stop-opacity: 1;"></stop><stop data-v-423bf9ae="" offset="100%" style="stop-color: rgb(21, 54, 241); stop-opacity: 1;"></stop></linearGradient></defs><g data-v-423bf9ae="" id="9bc89ab9-4d18-4c02-8cf7-9a14b3dc9b1f" transform="matrix(1.1344442536043298,0,0,1.1344442536043298,-12.529303384749255,-12.491255662004953)" stroke="none" fill="url(#f856a85e-a928-465e-8554-37c3c76c4a1a)"><path d="M51.042 11.092c-21.872 0-39.667 17.795-39.667 39.667S29.17 90.426 51.042 90.426s39.667-17.795 39.667-39.667-17.795-39.667-39.667-39.667zm0 3.94c15.998 0 29.575 10.57 34.111 25.094L55.765 69.53a1.971 1.971 0 0 0-.007 2.779l2.089 2.11H39.516V56.046l2.866 2.854c.765.762 2 .766 2.771.01l12.45-12.219 4.82 4.839a1.97 1.97 0 0 0 3.366-1.39l-.004-24.974a1.97 1.97 0 0 0-1.97-1.97H38.822a1.97 1.97 0 0 0-1.39 3.366l4.022 4.005L15.741 56.27a35.783 35.783 0 0 1-.425-5.511c-.001-19.7 16.026-35.727 35.726-35.727zm0 71.454c-16.207 0-29.925-10.85-34.282-25.664l28.875-28.865a1.967 1.967 0 0 0-.002-2.79l-2.041-2.032h18.253l.003 18.234-2.835-2.847c-.027-.026-.055-.049-.083-.075-.02-.017-.039-.037-.061-.054-.029-.024-.063-.047-.094-.07-.021-.016-.041-.033-.063-.047a3.38 3.38 0 0 0-.101-.061l-.066-.04c-.034-.019-.07-.033-.105-.05l-.068-.031c-.036-.015-.072-.027-.11-.041l-.069-.024c-.036-.011-.073-.019-.111-.028l-.072-.018c-.036-.007-.073-.011-.11-.017-.025-.004-.051-.009-.077-.011-.034-.003-.069-.004-.104-.006-.028-.001-.056-.004-.084-.004a.953.953 0 0 0-.093.003c-.033.001-.064.001-.096.004-.025.001-.05.007-.074.01a1.396 1.396 0 0 0-.113.016c-.011.001-.021.004-.031.007-.156.032-.31.082-.456.152-.018.008-.035.014-.052.023-.027.014-.055.031-.082.047-.028.017-.059.033-.086.05l-.057.04c-.035.024-.07.049-.104.076l-.036.031c-.038.032-.075.063-.112.099l-12.497 12.19-4.808-4.789a1.965 1.965 0 0 0-2.146-.423 1.967 1.967 0 0 0-1.214 1.819v25.089a1.97 1.97 0 0 0 1.971 1.97H62.57c.795 0 1.512-.478 1.817-1.211a1.968 1.968 0 0 0-.417-2.145l-4.03-4.075 26.301-26.315a35.75 35.75 0 0 1 .531 6.144c-.002 19.702-16.03 35.729-35.73 35.729z"></path></g><!----></svg>