<?xml version="1.0" encoding="utf-8"?>
<!-- Generator: Adobe Illustrator 25.1.0, SVG Export Plug-In . SVG Version: 6.00 Build 0)  -->
<svg version="1.1" id="Blue_Navy" xmlns="http://www.w3.org/2000/svg" xmlns:xlink="http://www.w3.org/1999/xlink" x="0px" y="0px"
	 viewBox="0 0 527.76 201.03" style="enable-background:new 0 0 527.76 201.03;" xml:space="preserve">
<style type="text/css">
	.st0{fill:#2E4369;}
	.st1{fill:#00B9FF;}
</style>
<path class="st0" d="M522.09,56.81c0-29.99-20.95-51.14-50.17-51.14c-37.29,0-62.28,27.11-62.28,65.75
	c0,30.18,21.15,51.14,50.94,51.14c27.11,0,47.29-13.07,55.56-34.03h-30.18c-4.04,6.54-12.5,10.57-22.88,10.57
	c-15.96,0-25.95-10.57-26.91-25.57h84.2C521.51,67.95,522.09,62.96,522.09,56.81z M438.47,53.34c2.69-13.84,16.15-24.8,32.3-24.8
	c14.03,0,24.61,10.19,24.61,24.8H438.47z"/>
<path class="st0" d="M328.71,119.86l5.38-28.84c16.53,3.27,19.03-5.96,23.26-28.45l2.11-11.15c5.96-31.33,18.07-46.91,52.67-42.68
	l-5.38,28.84c-16.53-3.27-19.42,9.23-23.07,28.64l-2.11,11.15C375.62,109.09,363.12,124.09,328.71,119.86z"/>
<polygon class="st0" points="288.34,120.05 308.72,8.36 335.63,8.36 315.26,120.05 "/>
<polygon class="st0" points="134.17,8.36 160.31,8.36 168.77,89.1 202.99,8.36 228.94,8.36 237.98,89.87 271.04,8.36 296.99,8.36 
	249.7,120.05 220.1,120.05 210.49,43.16 177.81,120.05 149.16,120.05 "/>
<polygon class="st1" points="36.69,37.97 5.67,67.63 58.44,67.63 63.95,54.71 37.25,54.71 53.95,38.01 44.21,21.28 89.52,21.28 
	47.73,120.05 63.43,120.05 110.72,8.36 19.27,8.36 "/>
<g>
	<path class="st0" d="M54.38,163.64h5.03v3.48h-5.03v18.58h-3.61v-18.58h-3.01v-3.48h3.01v-0.86c0-3.22,0.86-5.68,2.54-7.18
		c1.55-1.42,3.61-1.98,6.19-1.68v3.31c-1.68-0.13-2.88,0.17-3.74,0.99c-1.12,1.03-1.38,3.05-1.38,4.56
		C54.38,162.78,54.38,163.64,54.38,163.64z"/>
	<path class="st0" d="M84.74,174.69c0,6.36-4.82,11.52-11.14,11.52c-6.28,0-11.14-5.16-11.14-11.52c0-6.45,4.86-11.7,11.14-11.7
		C79.92,162.99,84.74,168.24,84.74,174.69z M81.08,174.69c0-4.6-3.35-8.34-7.48-8.34c-4.08,0-7.44,3.74-7.44,8.34
		c0,4.51,3.35,8.17,7.44,8.17C77.73,182.86,81.08,179.2,81.08,174.69z"/>
	<path class="st0" d="M100.39,166.65c-3.83-0.21-7.09,1.81-7.09,6.24v12.81h-3.65v-22.14h3.53v2.49c1.68-2.37,4.69-3.31,7.22-3.01
		v3.61H100.39z"/>
	<path class="st0" d="M136.72,185.69h-3.65v-13.8c0-3.44-1.63-5.55-5.03-5.55c-3.01,0-5.2,2.49-5.2,5.8v13.54h-3.61v-13.8
		c0-3.44-1.72-5.55-4.99-5.55c-3.01,0-5.25,2.49-5.25,5.8v13.54h-3.65v-22.14h3.53v2.41c1.38-1.85,3.44-2.97,5.89-2.97
		c3.14,0,5.46,1.42,6.84,3.78c1.38-2.28,3.74-3.78,6.92-3.78c5.12,0,8.21,3.48,8.21,8.99v13.73H136.72z"/>
	<path class="st0" d="M163.25,178.81c-1.55,4.73-5.33,7.4-10.45,7.4c-6.36,0-11.35-5.07-11.35-11.57c0-6.41,4.99-11.65,11.14-11.65
		c5.72,0,11.22,4.73,11.18,12.6h-18.62c0.47,4.6,4,7.31,7.65,7.31c3.14,0,5.37-1.5,6.58-4.08L163.25,178.81L163.25,178.81z
		 M159.73,172.32c-0.9-3.61-3.91-6.02-7.14-6.02c-3.05,0-6.28,2.24-7.22,6.02H159.73z"/>
	<path class="st0" d="M179.63,166.65c-3.83-0.21-7.09,1.81-7.09,6.24v12.81h-3.65v-22.14h3.53v2.49c1.68-2.37,4.69-3.31,7.22-3.01
		v3.61H179.63z"/>
	<path class="st0" d="M188.32,185.69h-3.65V153.7h3.65V185.69z"/>
	<path class="st0" d="M202.9,189.95c-1.55,4.13-4,5.8-8.43,5.33v-3.35c2.88,0.21,4.08-0.69,5.03-3.27l1.16-3.1l-8.47-22.02h3.96
		l6.45,17.63l6.32-17.63h3.91L202.9,189.95z"/>
	<path class="st0" d="M237.12,159.34v26.36h-3.65v-26.36h-9.37v-3.48h22.4v3.48H237.12z"/>
	<path class="st0" d="M261.33,166.65c-3.83-0.21-7.09,1.81-7.09,6.24v12.81h-3.65v-22.14h3.53v2.49c1.68-2.37,4.69-3.31,7.22-3.01
		v3.61H261.33z"/>
	<path class="st0" d="M280.3,183.16c-1.59,1.94-4.17,3.05-7.61,3.05c-4.56,0-8.64-2.06-8.64-6.84c0-4.56,3.31-6.62,9.03-6.92
		c5.42-0.26,7.18-1.25,7.18-3.01s-1.68-3.1-5.42-3.1c-2.32,0-5.38,0.73-5.76,3.96h-3.78c0.26-4.43,3.91-7.31,9.59-7.31
		c5.93,0,8.94,2.75,8.94,6.88v12.21c0,1.12,0.3,2.75,0.65,3.61h-3.61C280.55,185.05,280.34,184.19,280.3,183.16z M280.25,173.78
		c-1.46,1.29-4.08,1.59-6.71,1.76c-4.82,0.3-5.89,1.98-5.89,3.83c0,2.41,2.32,3.44,5.16,3.44c3.78,0,7.35-1.63,7.44-5.63V173.78z"/>
	<path class="st0" d="M308.5,185.69h-3.61v-13.46c0-3.4-1.89-5.89-5.42-5.89c-3.35,0-5.8,2.49-5.8,5.8v13.54h-3.65v-22.14h3.53v2.41
		c1.5-1.85,3.78-2.97,6.45-2.97c5.42,0,8.51,3.87,8.51,9.37v13.34H308.5z"/>
	<path class="st0" d="M323.21,186.25c-5.38,0-9.29-2.88-9.89-7.57h3.7c0.47,2.58,3.01,4.17,6.19,4.17c3.44,0,5.55-1.68,5.55-3.61
		c0-1.55-0.6-2.71-6.02-3.44c-5.38-0.77-8.64-2.06-8.64-6.24c0-3.18,2.75-6.58,8.69-6.58c5.12,0,8.56,2.58,9.03,6.92h-3.7
		c-0.52-2.37-2.62-3.57-5.33-3.57c-2.92,0-5.03,1.38-5.03,3.1c0,1.59,1.25,2.15,5.59,2.84c4.9,0.77,8.94,1.72,8.94,6.75
		C332.28,183.46,328.5,186.25,323.21,186.25z"/>
	<path class="st0" d="M342.34,163.64h5.03v3.48h-5.03v18.58h-3.61v-18.58h-3.01v-3.48h3.01v-0.86c0-3.22,0.86-5.68,2.54-7.18
		c1.55-1.42,3.61-1.98,6.19-1.68v3.31c-1.68-0.13-2.88,0.17-3.74,0.99c-1.12,1.03-1.38,3.05-1.38,4.56L342.34,163.64L342.34,163.64z
		"/>
	<path class="st0" d="M370.94,178.81c-1.55,4.73-5.33,7.4-10.45,7.4c-6.36,0-11.35-5.07-11.35-11.57c0-6.41,4.99-11.65,11.14-11.65
		c5.72,0,11.22,4.73,11.18,12.6h-18.62c0.47,4.6,4,7.31,7.65,7.31c3.14,0,5.38-1.5,6.58-4.08L370.94,178.81L370.94,178.81z
		 M367.41,172.32c-0.9-3.61-3.91-6.02-7.14-6.02c-3.05,0-6.28,2.24-7.22,6.02H367.41z"/>
	<path class="st0" d="M386.89,166.65c-3.83-0.21-7.09,1.81-7.09,6.24v12.81h-3.66v-22.14h3.53v2.49c1.68-2.37,4.69-3.31,7.22-3.01
		V166.65z"/>
	<path class="st0" d="M416.09,185.69l-6.58-23.99l-6.62,23.99h-3.87l-8.47-29.84h3.87l6.54,23.95l6.62-23.95h3.83l6.62,23.95
		l6.54-23.95h3.87l-8.47,29.84H416.09z"/>
	<path class="st0" d="M437.16,160.2h-3.66v-4.34h3.66V160.2z M437.16,185.69h-3.66v-22.14h3.66V185.69z"/>
	<path class="st0" d="M451.78,186.25c-5.38,0-9.29-2.88-9.89-7.57h3.7c0.47,2.58,3.01,4.17,6.19,4.17c3.44,0,5.55-1.68,5.55-3.61
		c0-1.55-0.6-2.71-6.02-3.44c-5.38-0.77-8.64-2.06-8.64-6.24c0-3.18,2.75-6.58,8.69-6.58c5.12,0,8.56,2.58,9.03,6.92h-3.7
		c-0.52-2.37-2.62-3.57-5.33-3.57c-2.92,0-5.03,1.38-5.03,3.1c0,1.59,1.25,2.15,5.59,2.84c4.9,0.77,8.94,1.72,8.94,6.75
		C460.85,183.46,457.06,186.25,451.78,186.25z"/>
	<path class="st0" d="M485.7,178.81c-1.55,4.73-5.33,7.4-10.45,7.4c-6.36,0-11.35-5.07-11.35-11.57c0-6.41,4.99-11.65,11.14-11.65
		c5.72,0,11.22,4.73,11.18,12.6H467.6c0.47,4.6,4,7.31,7.65,7.31c3.14,0,5.38-1.5,6.58-4.08L485.7,178.81L485.7,178.81z
		 M482.18,172.32c-0.9-3.61-3.91-6.02-7.14-6.02c-3.05,0-6.28,2.24-7.22,6.02H482.18z"/>
</g>
</svg>
